<?xml version="1.0" encoding="UTF-8" ?>
<svg width="80pt" height="80pt" viewBox="0 0 80 80" version="1.1" xmlns="http://www.w3.org/2000/svg">
<g id="#0306083b">
<path fill="#030608" opacity="0.23" d=" M 32.15 4.61 C 41.26 2.47 51.49 3.35 59.31 8.82 C 68.89 14.27 75.95 24.06 77.62 35.00 C 80.39 50.20 72.20 66.38 58.65 73.63 C 50.86 77.84 41.52 79.31 32.88 77.16 C 16.52 73.81 3.33 57.86 4.21 40.99 C 4.41 36.86 3.79 32.00 6.79 28.68 C 6.62 29.30 6.29 30.53 6.13 31.14 C 5.69 33.06 5.29 34.99 5.09 36.95 C 4.87 40.37 5.09 43.83 5.72 47.20 C 6.51 50.70 7.83 54.07 9.53 57.23 C 11.66 61.01 14.50 64.36 17.83 67.13 C 21.06 69.77 24.78 71.69 28.60 73.32 C 32.35 75.54 36.71 75.91 40.97 75.75 C 59.52 76.78 76.85 59.51 75.75 40.94 C 75.84 36.70 75.64 32.30 73.30 28.60 C 72.68 27.23 72.08 25.85 71.42 24.49 C 69.89 21.51 67.97 18.72 65.70 16.24 C 55.99 5.47 39.54 2.08 26.24 7.73 C 26.96 5.22 30.08 5.22 32.15 4.61 Z" />
</g>
<g id="#4fb0e1ff">
<path fill="#4fb0e1" opacity="1.00" d=" M 26.24 7.73 C 39.54 2.08 55.99 5.47 65.70 16.24 C 63.16 16.69 60.58 17.05 57.99 17.02 C 46.32 16.87 34.65 16.89 22.98 17.00 C 20.04 17.03 17.11 16.77 14.20 16.30 C 17.59 12.67 21.71 9.75 26.24 7.73 Z" />
</g>
<g id="#48a8d9ff">
<path fill="#48a8d9" opacity="1.00" d=" M 14.11 16.28 L 14.20 16.30 C 17.11 16.77 20.04 17.03 22.98 17.00 C 34.65 16.89 46.32 16.87 57.99 17.02 C 60.58 17.05 63.16 16.69 65.70 16.24 C 67.97 18.72 69.89 21.51 71.42 24.49 C 69.33 26.70 66.27 25.88 63.72 25.07 C 57.62 19.43 48.77 19.25 40.95 19.05 C 33.24 19.04 24.86 19.68 18.57 24.65 C 15.97 24.34 13.35 24.10 10.78 23.59 C 10.49 23.35 9.91 22.85 9.61 22.61 C 10.96 20.39 12.47 18.28 14.11 16.28 Z" />
</g>
<g id="#ffffffff">
<path fill="#ffffff" opacity="1.00" d=" M 18.57 24.65 C 24.86 19.68 33.24 19.04 40.95 19.05 C 48.77 19.25 57.62 19.43 63.72 25.07 C 63.80 25.41 63.96 26.10 64.05 26.44 C 64.05 30.89 64.21 35.36 63.73 39.80 C 57.68 34.64 50.18 30.49 42.07 30.27 C 32.93 29.68 23.77 33.70 17.35 40.09 C 16.77 35.87 16.91 31.60 16.99 27.36 C 17.45 26.42 17.97 25.52 18.57 24.65 Z" />
<path fill="#ffffff" opacity="1.00" d=" M 19.45 39.58 C 25.40 35.15 32.56 32.03 40.02 31.65 C 48.28 31.63 55.88 35.51 62.52 40.08 C 62.20 43.88 61.50 47.64 60.36 51.28 C 59.64 52.84 58.95 54.42 58.35 56.04 C 55.73 60.45 51.94 64.41 46.91 65.92 C 40.08 68.32 32.38 66.43 26.88 61.90 C 23.67 57.84 21.02 53.30 19.81 48.23 C 19.49 46.96 19.22 45.68 18.91 44.40 C 19.00 42.88 17.82 40.63 19.45 39.58 M 29.53 41.53 C 23.69 47.41 25.89 59.44 34.35 61.60 C 40.66 64.27 48.66 62.26 52.62 56.51 C 55.65 52.03 55.35 45.43 51.47 41.54 C 45.70 35.80 35.32 35.80 29.53 41.53 Z" />
<path fill="#ffffff" opacity="1.00" d=" M 31.01 45.01 C 34.93 38.77 45.19 38.44 49.52 44.38 C 51.64 46.61 51.44 49.79 51.42 52.63 C 49.38 56.93 45.02 60.39 40.05 59.81 C 36.01 60.08 32.73 57.32 30.32 54.40 C 29.49 51.32 28.87 47.72 31.01 45.01 M 31.25 51.14 C 31.46 54.81 34.95 56.93 37.89 58.41 C 39.62 58.39 41.35 58.38 43.08 58.40 C 46.03 56.93 49.53 54.83 49.74 51.15 C 50.75 46.03 45.79 41.64 40.97 41.58 C 35.85 41.14 30.21 45.68 31.25 51.14 Z" />
<path fill="#ffffff" opacity="1.00" d=" M 37.16 45.20 C 40.83 42.97 46.88 45.33 46.74 50.03 C 46.62 54.83 40.25 57.14 36.66 54.33 C 33.31 52.28 33.62 46.90 37.16 45.20 Z" />
</g>
<g id="#3f9bcbff">
<path fill="#3f9bcb" opacity="1.00" d=" M 9.48 22.49 L 9.61 22.61 C 9.91 22.85 10.49 23.35 10.78 23.59 C 13.35 24.10 15.97 24.34 18.57 24.65 C 17.97 25.52 17.45 26.42 16.99 27.36 C 16.42 28.85 16.06 30.42 15.84 32.00 C 12.58 32.15 9.30 31.95 6.13 31.14 C 6.29 30.53 6.62 29.30 6.79 28.68 C 7.56 26.56 8.57 24.54 9.48 22.49 Z" />
</g>
<g id="#3b97c6ff">
<path fill="#3b97c6" opacity="1.00" d=" M 71.42 24.49 C 72.08 25.85 72.68 27.23 73.30 28.60 C 73.88 31.14 74.39 33.69 74.82 36.26 C 71.66 37.05 68.40 37.26 65.15 37.12 C 65.42 33.52 64.95 29.92 64.05 26.44 C 63.96 26.10 63.80 25.41 63.72 25.07 C 66.27 25.88 69.33 26.70 71.42 24.49 Z" />
</g>
<g id="#2277a2ff">
<path fill="#2277a2" opacity="1.00" d=" M 64.05 26.44 C 64.95 29.92 65.42 33.52 65.15 37.12 C 64.45 40.32 63.94 43.58 64.00 46.87 C 67.43 47.01 70.86 47.04 74.30 46.97 C 73.59 50.15 72.46 53.22 71.04 56.15 C 67.81 56.11 64.58 56.01 61.35 55.86 C 61.52 53.49 61.60 51.12 61.71 48.76 C 62.13 45.72 62.89 42.74 63.73 39.80 C 64.21 35.36 64.05 30.89 64.05 26.44 Z" />
<path fill="#2277a2" opacity="1.00" d=" M 15.84 32.00 C 16.06 30.42 16.42 28.85 16.99 27.36 C 16.91 31.60 16.77 35.87 17.35 40.09 C 17.85 41.53 18.41 42.95 18.91 44.40 C 19.22 45.68 19.49 46.96 19.81 48.23 C 19.12 51.03 19.37 53.93 19.81 56.75 C 16.38 56.89 12.96 57.05 9.53 57.23 C 7.83 54.07 6.51 50.70 5.72 47.20 C 9.79 47.18 13.86 47.09 17.92 46.89 C 17.33 44.27 16.63 41.69 16.06 39.07 C 15.85 36.72 15.81 34.36 15.84 32.00 Z" />
</g>
<g id="#060e147f">
<path fill="#060e14" opacity="0.50" d=" M 73.30 28.60 C 75.64 32.30 75.84 36.70 75.75 40.94 C 76.85 59.51 59.52 76.78 40.97 75.75 C 36.71 75.91 32.35 75.54 28.60 73.32 C 40.39 76.84 53.91 74.59 63.16 66.22 C 66.33 63.33 69.04 59.94 71.04 56.15 C 72.46 53.22 73.59 50.15 74.30 46.97 C 74.96 43.44 75.16 39.83 74.82 36.26 C 74.39 33.69 73.88 31.14 73.30 28.60 Z" />
</g>
<g id="#145678ff">
<path fill="#145678" opacity="1.00" d=" M 17.35 40.09 C 23.77 33.70 32.93 29.68 42.07 30.27 C 50.18 30.49 57.68 34.64 63.73 39.80 C 62.89 42.74 62.13 45.72 61.71 48.76 C 61.37 49.39 60.70 50.65 60.36 51.28 C 61.50 47.64 62.20 43.88 62.52 40.08 C 55.88 35.51 48.28 31.63 40.02 31.65 C 32.56 32.03 25.40 35.15 19.45 39.58 C 17.82 40.63 19.00 42.88 18.91 44.40 C 18.41 42.95 17.85 41.53 17.35 40.09 Z" />
<path fill="#145678" opacity="1.00" d=" M 51.42 52.63 C 51.79 53.93 52.19 55.22 52.62 56.51 C 48.66 62.26 40.66 64.27 34.35 61.60 C 32.60 59.49 29.98 57.45 30.32 54.40 C 32.73 57.32 36.01 60.08 40.05 59.81 C 45.02 60.39 49.38 56.93 51.42 52.63 Z" />
</g>
<g id="#3691bfff">
<path fill="#3691bf" opacity="1.00" d=" M 5.09 36.95 C 5.29 34.99 5.69 33.06 6.13 31.14 C 9.30 31.95 12.58 32.15 15.84 32.00 C 15.81 34.36 15.85 36.72 16.06 39.07 C 12.44 38.71 7.48 40.58 5.09 36.95 Z" />
</g>
<g id="#2d85b2ff">
<path fill="#2d85b2" opacity="1.00" d=" M 74.82 36.26 C 75.16 39.83 74.96 43.44 74.30 46.97 C 70.86 47.04 67.43 47.01 64.00 46.87 C 63.94 43.58 64.45 40.32 65.15 37.12 C 68.40 37.26 71.66 37.05 74.82 36.26 Z" />
</g>
<g id="#2c84b0ff">
<path fill="#2c84b0" opacity="1.00" d=" M 5.72 47.20 C 5.09 43.83 4.87 40.37 5.09 36.95 C 7.48 40.58 12.44 38.71 16.06 39.07 C 16.63 41.69 17.33 44.27 17.92 46.89 C 13.86 47.09 9.79 47.18 5.72 47.20 Z" />
</g>
<g id="#236e95ff">
<path fill="#236e95" opacity="1.00" d=" M 29.53 41.53 C 35.32 35.80 45.70 35.80 51.47 41.54 C 55.35 45.43 55.65 52.03 52.62 56.51 C 52.19 55.22 51.79 53.93 51.42 52.63 C 51.44 49.79 51.64 46.61 49.52 44.38 C 45.19 38.44 34.93 38.77 31.01 45.01 C 28.87 47.72 29.49 51.32 30.32 54.40 C 29.98 57.45 32.60 59.49 34.35 61.60 C 25.89 59.44 23.69 47.41 29.53 41.53 Z" />
</g>
<g id="#216a8fff">
<path fill="#216a8f" opacity="1.00" d=" M 31.25 51.14 C 30.21 45.68 35.85 41.14 40.97 41.58 C 45.79 41.64 50.75 46.03 49.74 51.15 C 49.53 54.83 46.03 56.93 43.08 58.40 C 41.35 58.38 39.62 58.39 37.89 58.41 C 34.95 56.93 31.46 54.81 31.25 51.14 M 37.16 45.20 C 33.62 46.90 33.31 52.28 36.66 54.33 C 40.25 57.14 46.62 54.83 46.74 50.03 C 46.88 45.33 40.83 42.97 37.16 45.20 Z" />
</g>
<g id="#186891ff">
<path fill="#186891" opacity="1.00" d=" M 19.81 56.75 C 19.37 53.93 19.12 51.03 19.81 48.23 C 21.02 53.30 23.67 57.84 26.88 61.90 C 27.66 63.39 28.41 64.90 29.32 66.31 C 25.52 66.96 21.67 67.13 17.83 67.13 C 14.50 64.36 11.66 61.01 9.53 57.23 C 12.96 57.05 16.38 56.89 19.81 56.75 Z" />
</g>
<g id="#196a94ff">
<path fill="#196a94" opacity="1.00" d=" M 61.71 48.76 C 61.60 51.12 61.52 53.49 61.35 55.86 C 64.58 56.01 67.81 56.11 71.04 56.15 C 69.04 59.94 66.33 63.33 63.16 66.22 C 60.03 65.76 56.20 66.84 53.66 64.51 C 56.07 62.27 58.86 59.67 58.35 56.04 C 58.95 54.42 59.64 52.84 60.36 51.28 C 60.70 50.65 61.37 49.39 61.71 48.76 Z" />
</g>
<g id="#27546cff">
<path fill="#27546c" opacity="1.00" d=" M 46.91 65.92 C 51.94 64.41 55.73 60.45 58.35 56.04 C 58.86 59.67 56.07 62.27 53.66 64.51 C 46.58 69.60 37.18 69.28 29.32 66.31 C 28.41 64.90 27.66 63.39 26.88 61.90 C 32.38 66.43 40.08 68.32 46.91 65.92 Z" />
</g>
<g id="#105f88ff">
<path fill="#105f88" opacity="1.00" d=" M 29.32 66.31 C 37.18 69.28 46.58 69.60 53.66 64.51 C 56.20 66.84 60.03 65.76 63.16 66.22 C 53.91 74.59 40.39 76.84 28.60 73.32 C 24.78 71.69 21.06 69.77 17.83 67.13 C 21.67 67.13 25.52 66.96 29.32 66.31 Z" />
</g>
</svg>
